/* XPM */
static char * tomate_xpm[] = {
"64 64 16 1",
" 	c None",
".	c #015021",
"+	c #3BB100",
"@	c #033C1D",
"#	c #007824",
"$	c #510010",
"%	c #940000",
"&	c #A1390C",
"*	c #A90021",
"=	c #FF0003",
"-	c #A80014",
";	c #FE4C22",
">	c #FE8032",
",	c #DE000F",
"'	c #A70014",
")	c #B70001",
"                                                                ",
"                                                                ",
"                                                                ",
"                                                                ",
"                                                                ",
"                                                                ",
"                                                                ",
"                                                                ",
"                                                                ",
"                              ..                                ",
"                             .++.                               ",
"                             .++.                               ",
"                             .+++.                              ",
"                    .....    .+++.    .....                     ",
"                      .++..   .++.  ..++@                       ",
"                       .+++@@ .++@ @+++@                        ",
"                        .+###@.++@@##+@                         ",
"                         @####@+#@###@                          ",
"                      $$$$@@##@##@#@@$$$$                       ",
"                   %%%&&&&&&@.@##@.##@@**$$$                    ",
"                 %%======&@@##.@@.####+.&---$$                  ",
"                %========.+###@###@@#+++.&----$                 ",
"               %========.+++@@&@#+.&@@@++.&----$                ",
"              %========.++..&&&@++.&&&&@@@@&----$               ",
"             %====;;;=....&&&==&.+.&==&&&&&&&----$              ",
"            %====;;>>;==&&&====&.+.&===,,,,,,-----$             ",
"           %====;;>>>>;;========&..&====,,,,,,--,--$            ",
"           %====;>>>>>>>;;========.&====,,,,,,-----$            ",
"          %====;;>>>>>>>>;;;;;;====&====,,,,,,------$           ",
"          %=;==;;>>>>>>>>>>>>;;;========,,,,,,,-----$           ",
"          %====;;>>>>>>>>>>>>>;;========,,,,,,,-----$           ",
"         $=====;;;>>>>>>>>>>>>;;;===;===,,,,,,,------$          ",
"         $=====;;;;>>>>>;;>>>;;;;=======,,,,,,,''''''$          ",
"         $=====;;;;;;;;;;;;;;;;;=======,,,,,,,,''''''$          ",
"         $======;;;;;;;;;;;;;;;========,,,,,,,,''''''$          ",
"         $======;;;;;;;;==============,,=,,,,,,''''''$          ",
"         $=======;;;;;================,,,,,,,,'''''',$          ",
"         $,==========================,,,,,,,,,'''''',$          ",
"         $,,============;===========,,,,,,,,,'','''',$          ",
"          $,,======================,,,,,,,,,,'''''',$           ",
"          $,,,,==================,,,,,,,,,,,''''''',$           ",
"          $,,,,,,==============,,,,,,,,,,,,,''''''',$           ",
"           $,,,,,,,,=======,,,,,,,,,,,,,,,,''''''',$            ",
"           $),,,,,,,,,,,,,,,,,,,,,,,,,,,,,'''''''',$            ",
"            $--,,,,,,,,,,,,,,,,,,=,,,,,,,'''''''',$             ",
"             $---,,,,,,,,,,,,,,,,,,,,,,,'''''''',$              ",
"              $-----,,,,,,,,,,,,,,,,,,''''''''',$               ",
"               $---------,,,,,,,,,,''''''''''',$                ",
"                $$--------------'''''''''''''$$                 ",
"                  $$$-----------''''''''''$$$                   ",
"                     $$$$-------''''''$$$$                      ",
"                         $$$$$$$$$$$$$                          ",
"                                                                ",
"                                                                ",
"                                                                ",
"                                                                ",
"                                                                ",
"                                                                ",
"                                                                ",
"                                                                ",
"                                                                ",
"                                                                ",
"                                                                ",
"                                                                "};
